solid buserror-nozzle-model (repaired)
 facet normal -1.000000 0.000000 0.000000
  outer loop
   vertex -6.400000 7.250000 11.150000
   vertex -6.400000 -4.750000 12.300000
   vertex -6.400000 11.250000 12.300000
  endloop
 endfacet
 facet normal -1.000000 0.000000 0.000000
  outer loop
   vertex -6.400000 -4.750000 4.000000
   vertex -6.400000 -4.750000 12.300000
   vertex -6.400000 4.478360 7.001950
  endloop
 endfacet
 facet normal -1.000000 0.000000 0.000000
  outer loop
   vertex -6.400000 -4.750000 4.000000
   vertex -6.400000 4.478360 7.001950
   vertex -6.400000 5.128680 6.028680
  endloop
 endfacet
 facet normal -1.000000 0.000000 0.000000
  outer loop
   vertex -6.400000 -4.750000 4.000000
   vertex -6.400000 5.128680 6.028680
   vertex -6.400000 6.101950 5.378360
  endloop
 endfacet
 facet normal -1.000000 0.000000 0.000000
  outer loop
   vertex -6.400000 -4.750000 4.000000
   vertex -6.400000 6.101950 5.378360
   vertex -6.400000 11.250000 4.000000
  endloop
 endfacet
 facet normal -1.000000 0.000000 0.000000
  outer loop
   vertex -6.400000 6.101950 5.378360
   vertex -6.400000 7.250000 5.150000
   vertex -6.400000 11.250000 4.000000
  endloop
 endfacet
 facet normal -1.000000 0.000000 -0.000000
  outer loop
   vertex -6.400000 8.398050 5.378360
   vertex -6.400000 11.250000 4.000000
   vertex -6.400000 7.250000 5.150000
  endloop
 endfacet
 facet normal -1.000000 0.000000 -0.000000
  outer loop
   vertex -6.400000 9.371320 6.028680
   vertex -6.400000 11.250000 4.000000
   vertex -6.400000 8.398050 5.378360
  endloop
 endfacet
 facet normal -1.000000 0.000000 0.000000
  outer loop
   vertex -6.400000 10.021600 9.298050
   vertex -6.400000 11.250000 12.300000
   vertex -6.400000 10.250000 8.150000
  endloop
 endfacet
 facet normal -1.000000 0.000000 0.000000
  outer loop
   vertex -6.400000 11.250000 4.000000
   vertex -6.400000 9.371320 6.028680
   vertex -6.400000 10.021600 7.001950
  endloop
 endfacet
 facet normal -1.000000 0.000000 0.000000
  outer loop
   vertex -6.400000 11.250000 4.000000
   vertex -6.400000 10.021600 7.001950
   vertex -6.400000 11.250000 12.300000
  endloop
 endfacet
 facet normal -1.000000 0.000000 0.000000
  outer loop
   vertex -6.400000 10.021600 7.001950
   vertex -6.400000 10.250000 8.150000
   vertex -6.400000 11.250000 12.300000
  endloop
 endfacet
 facet normal -1.000000 0.000000 0.000000
  outer loop
   vertex -6.400000 8.398050 10.921600
   vertex -6.400000 11.250000 12.300000
   vertex -6.400000 9.371320 10.271300
  endloop
 endfacet
 facet normal -1.000000 0.000000 0.000000
  outer loop
   vertex -6.400000 10.021600 9.298050
   vertex -6.400000 9.371320 10.271300
   vertex -6.400000 11.250000 12.300000
  endloop
 endfacet
 facet normal -1.000000 0.000000 0.000000
  outer loop
   vertex -6.400000 6.101950 10.921600
   vertex -6.400000 -4.750000 12.300000
   vertex -6.400000 7.250000 11.150000
  endloop
 endfacet
 facet normal -1.000000 0.000000 0.000000
  outer loop
   vertex -6.400000 8.398050 10.921600
   vertex -6.400000 7.250000 11.150000
   vertex -6.400000 11.250000 12.300000
  endloop
 endfacet
 facet normal -1.000000 0.000000 0.000000
  outer loop
   vertex -6.400000 5.128680 10.271300
   vertex -6.400000 -4.750000 12.300000
   vertex -6.400000 6.101950 10.921600
  endloop
 endfacet
 facet normal -1.000000 0.000000 0.000000
  outer loop
   vertex -6.400000 4.478360 9.298050
   vertex -6.400000 -4.750000 12.300000
   vertex -6.400000 5.128680 10.271300
  endloop
 endfacet
 facet normal -1.000000 0.000000 0.000000
  outer loop
   vertex -6.400000 4.250000 8.150000
   vertex -6.400000 -4.750000 12.300000
   vertex -6.400000 4.478360 9.298050
  endloop
 endfacet
 facet normal -1.000000 0.000000 0.000000
  outer loop
   vertex -6.400000 4.478360 7.001950
   vertex -6.400000 -4.750000 12.300000
   vertex -6.400000 4.250000 8.150000
  endloop
 endfacet
 facet normal 0.000000 -1.000000 0.000000
  outer loop
   vertex -6.400000 -4.750000 12.300000
   vertex -6.400000 -4.750000 4.000000
   vertex 0.000000 -4.750000 4.000000
  endloop
 endfacet
 facet normal -0.000000 -1.000000 -0.000000
  outer loop
   vertex 0.000000 -4.750000 12.300000
   vertex -6.400000 -4.750000 12.300000
   vertex 6.400000 -4.750000 4.000000
  endloop
 endfacet
 facet normal 0.000000 -1.000000 0.000000
  outer loop
   vertex 6.400000 -4.750000 4.000000
   vertex -6.400000 -4.750000 12.300000
   vertex 0.000000 -4.750000 4.000000
  endloop
 endfacet
 facet normal -0.000000 -1.000000 -0.000000
  outer loop
   vertex 6.400000 -4.750000 12.300000
   vertex 0.000000 -4.750000 12.300000
   vertex 6.400000 -4.750000 4.000000
  endloop
 endfacet
 facet normal -0.000000 0.000000 -1.000000
  outer loop
   vertex -4.388430 -1.817750 4.000000
   vertex -6.400000 -4.750000 4.000000
   vertex -4.750000 0.000000 4.000000
  endloop
 endfacet
 facet normal 0.000000 0.000000 -1.000000
  outer loop
   vertex 1.817750 4.388430 4.000000
   vertex -6.400000 11.250000 4.000000
   vertex 6.400000 11.250000 4.000000
  endloop
 endfacet
 facet normal 0.000000 0.000000 -1.000000
  outer loop
   vertex 4.750000 0.000000 4.000000
   vertex 6.400000 11.250000 4.000000
   vertex 6.400000 -4.750000 4.000000
  endloop
 endfacet
 facet normal 0.000000 0.000000 -1.000000
  outer loop
   vertex 1.817750 4.388430 4.000000
   vertex 6.400000 11.250000 4.000000
   vertex 3.358760 3.358760 4.000000
  endloop
 endfacet
 facet normal 0.000000 0.000000 -1.000000
  outer loop
   vertex 0.000000 -4.750000 4.000000
   vertex 1.817750 -4.388430 4.000000
   vertex 6.400000 -4.750000 4.000000
  endloop
 endfacet
 facet normal 0.000000 0.000000 -1.000000
  outer loop
   vertex 3.358760 3.358760 4.000000
   vertex 6.400000 11.250000 4.000000
   vertex 4.388430 1.817750 4.000000
  endloop
 endfacet
 facet normal 0.000000 0.000000 -1.000000
  outer loop
   vertex 1.817750 -4.388430 4.000000
   vertex 3.358760 -3.358760 4.000000
   vertex 6.400000 -4.750000 4.000000
  endloop
 endfacet
 facet normal 0.000000 0.000000 -1.000000
  outer loop
   vertex 3.358760 -3.358760 4.000000
   vertex 4.388430 -1.817750 4.000000
   vertex 6.400000 -4.750000 4.000000
  endloop
 endfacet
 facet normal 0.000000 0.000000 -1.000000
  outer loop
   vertex 4.388430 -1.817750 4.000000
   vertex 4.750000 0.000000 4.000000
   vertex 6.400000 -4.750000 4.000000
  endloop
 endfacet
 facet normal 0.000000 0.000000 -1.000000
  outer loop
   vertex 0.000000 4.750000 4.000000
   vertex -6.400000 11.250000 4.000000
   vertex 1.817750 4.388430 4.000000
  endloop
 endfacet
 facet normal 0.000000 0.000000 -1.000000
  outer loop
   vertex -3.358760 3.358760 4.000000
   vertex -6.400000 11.250000 4.000000
   vertex -1.817750 4.388430 4.000000
  endloop
 endfacet
 facet normal 0.000000 0.000000 -1.000000
  outer loop
   vertex -1.817750 4.388430 4.000000
   vertex -6.400000 11.250000 4.000000
   vertex 0.000000 4.750000 4.000000
  endloop
 endfacet
 facet normal 0.000000 0.000000 -1.000000
  outer loop
   vertex -4.388430 1.817750 4.000000
   vertex -6.400000 11.250000 4.000000
   vertex -3.358760 3.358760 4.000000
  endloop
 endfacet
 facet normal 0.000000 0.000000 -1.000000
  outer loop
   vertex -6.400000 -4.750000 4.000000
   vertex -6.400000 11.250000 4.000000
   vertex -4.388430 1.817750 4.000000
  endloop
 endfacet
 facet normal 0.000000 0.000000 -1.000000
  outer loop
   vertex -6.400000 -4.750000 4.000000
   vertex -4.388430 1.817750 4.000000
   vertex -4.750000 0.000000 4.000000
  endloop
 endfacet
 facet normal 0.000000 0.000000 -1.000000
  outer loop
   vertex -6.400000 -4.750000 4.000000
   vertex -4.388430 -1.817750 4.000000
   vertex -3.358760 -3.358760 4.000000
  endloop
 endfacet
 facet normal 0.000000 0.000000 -1.000000
  outer loop
   vertex -6.400000 -4.750000 4.000000
   vertex -3.358760 -3.358760 4.000000
   vertex -1.817750 -4.388430 4.000000
  endloop
 endfacet
 facet normal 0.000000 0.000000 -1.000000
  outer loop
   vertex -6.400000 -4.750000 4.000000
   vertex -1.817750 -4.388430 4.000000
   vertex 0.000000 -4.750000 4.000000
  endloop
 endfacet
 facet normal 0.000000 0.000000 -1.000000
  outer loop
   vertex 4.388430 1.817750 4.000000
   vertex 6.400000 11.250000 4.000000
   vertex 4.750000 0.000000 4.000000
  endloop
 endfacet
 facet normal 0.000000 1.000000 0.000000
  outer loop
   vertex -6.400000 11.250000 4.000000
   vertex -6.400000 11.250000 12.300000
   vertex 6.400000 11.250000 4.000000
  endloop
 endfacet
 facet normal 0.000000 1.000000 -0.000000
  outer loop
   vertex 6.400000 11.250000 4.000000
   vertex -6.400000 11.250000 12.300000
   vertex 6.400000 11.250000 12.300000
  endloop
 endfacet
 facet normal 0.000000 0.000000 1.000000
  outer loop
   vertex -1.817750 -4.388430 12.300000
   vertex -6.400000 -4.750000 12.300000
   vertex 0.000000 -4.750000 12.300000
  endloop
 endfacet
 facet normal 0.000000 0.000000 1.000000
  outer loop
   vertex -3.358760 -3.358760 12.300000
   vertex -6.400000 -4.750000 12.300000
   vertex -1.817750 -4.388430 12.300000
  endloop
 endfacet
 facet normal 0.000000 0.000000 1.000000
  outer loop
   vertex -4.388430 -1.817750 12.300000
   vertex -6.400000 -4.750000 12.300000
   vertex -3.358760 -3.358760 12.300000
  endloop
 endfacet
 facet normal 0.000000 -0.000000 1.000000
  outer loop
   vertex -4.388430 1.817750 12.300000
   vertex -3.358760 3.358760 12.300000
   vertex -6.400000 11.250000 12.300000
  endloop
 endfacet
 facet normal 0.000000 0.000000 1.000000
  outer loop
   vertex -4.750000 0.000000 12.300000
   vertex -6.400000 -4.750000 12.300000
   vertex -4.388430 -1.817750 12.300000
  endloop
 endfacet
 facet normal 0.000000 0.000000 1.000000
  outer loop
   vertex -6.400000 11.250000 12.300000
   vertex -6.400000 -4.750000 12.300000
   vertex -4.750000 0.000000 12.300000
  endloop
 endfacet
 facet normal 0.000000 -0.000000 1.000000
  outer loop
   vertex -3.358760 3.358760 12.300000
   vertex -1.817750 4.388430 12.300000
   vertex -6.400000 11.250000 12.300000
  endloop
 endfacet
 facet normal 0.000000 0.000000 1.000000
  outer loop
   vertex 0.000000 4.750000 12.300000
   vertex -6.400000 11.250000 12.300000
   vertex -1.817750 4.388430 12.300000
  endloop
 endfacet
 facet normal 0.000000 0.000000 1.000000
  outer loop
   vertex 1.817750 4.388430 12.300000
   vertex -6.400000 11.250000 12.300000
   vertex 0.000000 4.750000 12.300000
  endloop
 endfacet
 facet normal 0.000000 0.000000 1.000000
  outer loop
   vertex 3.358760 3.358760 12.300000
   vertex -6.400000 11.250000 12.300000
   vertex 1.817750 4.388430 12.300000
  endloop
 endfacet
 facet normal 0.000000 0.000000 1.000000
  outer loop
   vertex 6.400000 11.250000 12.300000
   vertex -6.400000 11.250000 12.300000
   vertex 3.358760 3.358760 12.300000
  endloop
 endfacet
 facet normal 0.000000 0.000000 1.000000
  outer loop
   vertex 6.400000 11.250000 12.300000
   vertex 3.358760 3.358760 12.300000
   vertex 4.388430 1.817750 12.300000
  endloop
 endfacet
 facet normal 0.000000 0.000000 1.000000
  outer loop
   vertex 6.400000 -4.750000 12.300000
   vertex 4.388430 1.817750 12.300000
   vertex 4.750000 0.000000 12.300000
  endloop
 endfacet
 facet normal 0.000000 0.000000 1.000000
  outer loop
   vertex 6.400000 -4.750000 12.300000
   vertex 4.750000 0.000000 12.300000
   vertex 4.388430 -1.817750 12.300000
  endloop
 endfacet
 facet normal 0.000000 0.000000 1.000000
  outer loop
   vertex 6.400000 -4.750000 12.300000
   vertex 4.388430 -1.817750 12.300000
   vertex 3.358760 -3.358760 12.300000
  endloop
 endfacet
 facet normal 0.000000 0.000000 1.000000
  outer loop
   vertex 6.400000 -4.750000 12.300000
   vertex 3.358760 -3.358760 12.300000
   vertex 1.817750 -4.388430 12.300000
  endloop
 endfacet
 facet normal 0.000000 0.000000 1.000000
  outer loop
   vertex 0.000000 -4.750000 12.300000
   vertex 6.400000 -4.750000 12.300000
   vertex 1.817750 -4.388430 12.300000
  endloop
 endfacet
 facet normal 0.000000 -0.000000 1.000000
  outer loop
   vertex 6.400000 -4.750000 12.300000
   vertex 6.400000 11.250000 12.300000
   vertex 4.388430 1.817750 12.300000
  endloop
 endfacet
 facet normal 0.000000 -0.000000 1.000000
  outer loop
   vertex -4.750000 0.000000 12.300000
   vertex -4.388430 1.817750 12.300000
   vertex -6.400000 11.250000 12.300000
  endloop
 endfacet
 facet normal 0.000000 0.980785 -0.195089
  outer loop
   vertex 6.400000 4.478360 9.298050
   vertex 6.400000 4.250000 8.150000
   vertex -6.400000 4.478360 9.298050
  endloop
 endfacet
 facet normal 0.000000 0.980785 -0.195089
  outer loop
   vertex -6.400000 4.478360 9.298050
   vertex 6.400000 4.250000 8.150000
   vertex -6.400000 4.250000 8.150000
  endloop
 endfacet
 facet normal 0.000000 0.980786 0.195089
  outer loop
   vertex 6.400000 4.478360 7.001950
   vertex -6.400000 4.478360 7.001950
   vertex 6.400000 4.250000 8.150000
  endloop
 endfacet
 facet normal 0.000000 0.980786 0.195089
  outer loop
   vertex 6.400000 4.250000 8.150000
   vertex -6.400000 4.478360 7.001950
   vertex -6.400000 4.250000 8.150000
  endloop
 endfacet
 facet normal 0.000000 0.831464 -0.555579
  outer loop
   vertex 6.400000 5.128680 10.271300
   vertex 6.400000 4.478360 9.298050
   vertex -6.400000 5.128680 10.271300
  endloop
 endfacet
 facet normal 0.000000 0.831464 -0.555579
  outer loop
   vertex -6.400000 5.128680 10.271300
   vertex 6.400000 4.478360 9.298050
   vertex -6.400000 4.478360 9.298050
  endloop
 endfacet
 facet normal 0.000000 0.555560 -0.831477
  outer loop
   vertex 6.400000 6.101950 10.921600
   vertex 6.400000 5.128680 10.271300
   vertex -6.400000 6.101950 10.921600
  endloop
 endfacet
 facet normal 0.000000 0.555560 -0.831477
  outer loop
   vertex -6.400000 6.101950 10.921600
   vertex 6.400000 5.128680 10.271300
   vertex -6.400000 5.128680 10.271300
  endloop
 endfacet
 facet normal 0.000000 0.195122 -0.980779
  outer loop
   vertex 6.400000 7.250000 11.150000
   vertex 6.400000 6.101950 10.921600
   vertex -6.400000 7.250000 11.150000
  endloop
 endfacet
 facet normal 0.000000 0.195122 -0.980779
  outer loop
   vertex -6.400000 7.250000 11.150000
   vertex 6.400000 6.101950 10.921600
   vertex -6.400000 6.101950 10.921600
  endloop
 endfacet
 facet normal -0.000000 -0.195121 -0.980779
  outer loop
   vertex 6.400000 8.398050 10.921600
   vertex 6.400000 7.250000 11.150000
   vertex -6.400000 8.398050 10.921600
  endloop
 endfacet
 facet normal 0.000000 -0.195121 -0.980779
  outer loop
   vertex -6.400000 8.398050 10.921600
   vertex 6.400000 7.250000 11.150000
   vertex -6.400000 7.250000 11.150000
  endloop
 endfacet
 facet normal -0.000000 -0.555560 -0.831477
  outer loop
   vertex 6.400000 9.371320 10.271300
   vertex 6.400000 8.398050 10.921600
   vertex -6.400000 9.371320 10.271300
  endloop
 endfacet
 facet normal 0.000000 -0.555560 -0.831477
  outer loop
   vertex -6.400000 9.371320 10.271300
   vertex 6.400000 8.398050 10.921600
   vertex -6.400000 8.398050 10.921600
  endloop
 endfacet
 facet normal 0.000000 -0.831479 -0.555555
  outer loop
   vertex -6.400000 10.021600 9.298050
   vertex 6.400000 10.021600 9.298050
   vertex 6.400000 9.371320 10.271300
  endloop
 endfacet
 facet normal 0.000000 -0.831479 -0.555555
  outer loop
   vertex -6.400000 9.371320 10.271300
   vertex -6.400000 10.021600 9.298050
   vertex 6.400000 9.371320 10.271300
  endloop
 endfacet
 facet normal 0.000000 -0.980779 -0.195122
  outer loop
   vertex -6.400000 10.250000 8.150000
   vertex 6.400000 10.250000 8.150000
   vertex 6.400000 10.021600 9.298050
  endloop
 endfacet
 facet normal 0.000000 -0.980779 -0.195122
  outer loop
   vertex -6.400000 10.021600 9.298050
   vertex -6.400000 10.250000 8.150000
   vertex 6.400000 10.021600 9.298050
  endloop
 endfacet
 facet normal 0.000000 -0.980779 0.195122
  outer loop
   vertex 6.400000 10.021600 7.001950
   vertex 6.400000 10.250000 8.150000
   vertex -6.400000 10.250000 8.150000
  endloop
 endfacet
 facet normal 0.000000 -0.980779 0.195122
  outer loop
   vertex -6.400000 10.021600 7.001950
   vertex 6.400000 10.021600 7.001950
   vertex -6.400000 10.250000 8.150000
  endloop
 endfacet
 facet normal 0.000000 -0.831485 0.555548
  outer loop
   vertex 6.400000 9.371320 6.028680
   vertex 6.400000 10.021600 7.001950
   vertex -6.400000 10.021600 7.001950
  endloop
 endfacet
 facet normal 0.000000 -0.831485 0.555548
  outer loop
   vertex -6.400000 9.371320 6.028680
   vertex 6.400000 9.371320 6.028680
   vertex -6.400000 10.021600 7.001950
  endloop
 endfacet
 facet normal 0.000000 -0.555572 0.831469
  outer loop
   vertex 6.400000 8.398050 5.378360
   vertex 6.400000 9.371320 6.028680
   vertex -6.400000 9.371320 6.028680
  endloop
 endfacet
 facet normal 0.000000 -0.555572 0.831469
  outer loop
   vertex -6.400000 8.398050 5.378360
   vertex 6.400000 8.398050 5.378360
   vertex -6.400000 9.371320 6.028680
  endloop
 endfacet
 facet normal 0.000000 -0.195089 0.980786
  outer loop
   vertex 6.400000 7.250000 5.150000
   vertex 6.400000 8.398050 5.378360
   vertex -6.400000 8.398050 5.378360
  endloop
 endfacet
 facet normal 0.000000 -0.195089 0.980786
  outer loop
   vertex -6.400000 7.250000 5.150000
   vertex 6.400000 7.250000 5.150000
   vertex -6.400000 8.398050 5.378360
  endloop
 endfacet
 facet normal 0.000000 0.195089 0.980786
  outer loop
   vertex 6.400000 6.101950 5.378360
   vertex 6.400000 7.250000 5.150000
   vertex -6.400000 7.250000 5.150000
  endloop
 endfacet
 facet normal -0.000000 0.195089 0.980786
  outer loop
   vertex -6.400000 6.101950 5.378360
   vertex 6.400000 6.101950 5.378360
   vertex -6.400000 7.250000 5.150000
  endloop
 endfacet
 facet normal 0.000000 0.555571 0.831469
  outer loop
   vertex 6.400000 5.128680 6.028680
   vertex 6.400000 6.101950 5.378360
   vertex -6.400000 6.101950 5.378360
  endloop
 endfacet
 facet normal -0.000000 0.555571 0.831469
  outer loop
   vertex -6.400000 5.128680 6.028680
   vertex 6.400000 5.128680 6.028680
   vertex -6.400000 6.101950 5.378360
  endloop
 endfacet
 facet normal 0.000000 0.831469 0.555571
  outer loop
   vertex 6.400000 5.128680 6.028680
   vertex -6.400000 5.128680 6.028680
   vertex 6.400000 4.478360 7.001950
  endloop
 endfacet
 facet normal 0.000000 0.831469 0.555571
  outer loop
   vertex 6.400000 4.478360 7.001950
   vertex -6.400000 5.128680 6.028680
   vertex -6.400000 4.478360 7.001950
  endloop
 endfacet
 facet normal -0.195089 -0.980786 -0.000000
  outer loop
   vertex -1.817750 -4.388430 18.000000
   vertex -1.817750 -4.388430 12.300000
   vertex 0.000000 -4.750000 12.300000
  endloop
 endfacet
 facet normal -0.195089 -0.980786 -0.000000
  outer loop
   vertex 0.000000 -4.750000 18.000000
   vertex -1.817750 -4.388430 18.000000
   vertex 0.000000 -4.750000 12.300000
  endloop
 endfacet
 facet normal 0.195089 -0.980786 0.000000
  outer loop
   vertex 0.000000 -4.750000 18.000000
   vertex 0.000000 -4.750000 12.300000
   vertex 1.817750 -4.388430 12.300000
  endloop
 endfacet
 facet normal 0.195089 -0.980786 0.000000
  outer loop
   vertex 1.817750 -4.388430 18.000000
   vertex 0.000000 -4.750000 18.000000
   vertex 1.817750 -4.388430 12.300000
  endloop
 endfacet
 facet normal 1.000000 0.000000 0.000000
  outer loop
   vertex 6.400000 7.250000 5.150000
   vertex 6.400000 -4.750000 4.000000
   vertex 6.400000 11.250000 4.000000
  endloop
 endfacet
 facet normal 1.000000 0.000000 0.000000
  outer loop
   vertex 6.400000 -4.750000 12.300000
   vertex 6.400000 -4.750000 4.000000
   vertex 6.400000 4.478360 7.001950
  endloop
 endfacet
 facet normal 1.000000 0.000000 0.000000
  outer loop
   vertex 6.400000 8.398050 5.378360
   vertex 6.400000 7.250000 5.150000
   vertex 6.400000 11.250000 4.000000
  endloop
 endfacet
 facet normal 1.000000 0.000000 0.000000
  outer loop
   vertex 6.400000 4.478360 9.298050
   vertex 6.400000 -4.750000 12.300000
   vertex 6.400000 4.250000 8.150000
  endloop
 endfacet
 facet normal 1.000000 0.000000 0.000000
  outer loop
   vertex 6.400000 5.128680 10.271300
   vertex 6.400000 -4.750000 12.300000
   vertex 6.400000 4.478360 9.298050
  endloop
 endfacet
 facet normal 1.000000 -0.000000 0.000000
  outer loop
   vertex 6.400000 8.398050 10.921600
   vertex 6.400000 9.371320 10.271300
   vertex 6.400000 11.250000 12.300000
  endloop
 endfacet
 facet normal 1.000000 0.000000 0.000000
  outer loop
   vertex 6.400000 6.101950 10.921600
   vertex 6.400000 -4.750000 12.300000
   vertex 6.400000 5.128680 10.271300
  endloop
 endfacet
 facet normal 1.000000 0.000000 0.000000
  outer loop
   vertex 6.400000 11.250000 12.300000
   vertex 6.400000 -4.750000 12.300000
   vertex 6.400000 6.101950 10.921600
  endloop
 endfacet
 facet normal 1.000000 0.000000 0.000000
  outer loop
   vertex 6.400000 11.250000 12.300000
   vertex 6.400000 6.101950 10.921600
   vertex 6.400000 7.250000 11.150000
  endloop
 endfacet
 facet normal 1.000000 0.000000 0.000000
  outer loop
   vertex 6.400000 10.250000 8.150000
   vertex 6.400000 10.021600 7.001950
   vertex 6.400000 11.250000 4.000000
  endloop
 endfacet
 facet normal 1.000000 0.000000 0.000000
  outer loop
   vertex 6.400000 9.371320 6.028680
   vertex 6.400000 8.398050 5.378360
   vertex 6.400000 11.250000 4.000000
  endloop
 endfacet
 facet normal 1.000000 0.000000 0.000000
  outer loop
   vertex 6.400000 11.250000 12.300000
   vertex 6.400000 10.021600 9.298050
   vertex 6.400000 11.250000 4.000000
  endloop
 endfacet
 facet normal 1.000000 0.000000 0.000000
  outer loop
   vertex 6.400000 11.250000 12.300000
   vertex 6.400000 9.371320 10.271300
   vertex 6.400000 10.021600 9.298050
  endloop
 endfacet
 facet normal 1.000000 0.000000 0.000000
  outer loop
   vertex 6.400000 10.021600 9.298050
   vertex 6.400000 10.250000 8.150000
   vertex 6.400000 11.250000 4.000000
  endloop
 endfacet
 facet normal 1.000000 0.000000 0.000000
  outer loop
   vertex 6.400000 10.021600 7.001950
   vertex 6.400000 9.371320 6.028680
   vertex 6.400000 11.250000 4.000000
  endloop
 endfacet
 facet normal 1.000000 -0.000000 0.000000
  outer loop
   vertex 6.400000 7.250000 11.150000
   vertex 6.400000 8.398050 10.921600
   vertex 6.400000 11.250000 12.300000
  endloop
 endfacet
 facet normal 1.000000 0.000000 0.000000
  outer loop
   vertex 6.400000 6.101950 5.378360
   vertex 6.400000 -4.750000 4.000000
   vertex 6.400000 7.250000 5.150000
  endloop
 endfacet
 facet normal 1.000000 0.000000 0.000000
  outer loop
   vertex 6.400000 5.128680 6.028680
   vertex 6.400000 -4.750000 4.000000
   vertex 6.400000 6.101950 5.378360
  endloop
 endfacet
 facet normal 1.000000 0.000000 0.000000
  outer loop
   vertex 6.400000 4.478360 7.001950
   vertex 6.400000 -4.750000 4.000000
   vertex 6.400000 5.128680 6.028680
  endloop
 endfacet
 facet normal 1.000000 0.000000 0.000000
  outer loop
   vertex 6.400000 4.478360 7.001950
   vertex 6.400000 4.250000 8.150000
   vertex 6.400000 -4.750000 12.300000
  endloop
 endfacet
 facet normal 0.195089 -0.980786 0.000000
  outer loop
   vertex 0.000000 -4.750000 4.000000
   vertex 0.000000 -4.750000 3.000000
   vertex 1.817750 -4.388430 3.000000
  endloop
 endfacet
 facet normal 0.195089 -0.980786 0.000000
  outer loop
   vertex 1.817750 -4.388430 4.000000
   vertex 0.000000 -4.750000 4.000000
   vertex 1.817750 -4.388430 3.000000
  endloop
 endfacet
 facet normal -0.195089 -0.980786 -0.000000
  outer loop
   vertex -1.817750 -4.388430 4.000000
   vertex -1.817750 -4.388430 3.000000
   vertex 0.000000 -4.750000 3.000000
  endloop
 endfacet
 facet normal -0.195089 -0.980786 -0.000000
  outer loop
   vertex 0.000000 -4.750000 4.000000
   vertex -1.817750 -4.388430 4.000000
   vertex 0.000000 -4.750000 3.000000
  endloop
 endfacet
 facet normal -0.555570 -0.831470 -0.000000
  outer loop
   vertex -3.358760 -3.358760 4.000000
   vertex -3.358760 -3.358760 3.000000
   vertex -1.817750 -4.388430 3.000000
  endloop
 endfacet
 facet normal -0.555570 -0.831470 -0.000000
  outer loop
   vertex -1.817750 -4.388430 4.000000
   vertex -3.358760 -3.358760 4.000000
   vertex -1.817750 -4.388430 3.000000
  endloop
 endfacet
 facet normal -0.831470 -0.555570 0.000000
  outer loop
   vertex -4.388430 -1.817750 3.000000
   vertex -3.358760 -3.358760 3.000000
   vertex -4.388430 -1.817750 4.000000
  endloop
 endfacet
 facet normal -0.831470 -0.555570 0.000000
  outer loop
   vertex -4.388430 -1.817750 4.000000
   vertex -3.358760 -3.358760 3.000000
   vertex -3.358760 -3.358760 4.000000
  endloop
 endfacet
 facet normal -0.980786 -0.195089 0.000000
  outer loop
   vertex -4.750000 0.000000 3.000000
   vertex -4.388430 -1.817750 3.000000
   vertex -4.750000 0.000000 4.000000
  endloop
 endfacet
 facet normal -0.980786 -0.195089 0.000000
  outer loop
   vertex -4.750000 0.000000 4.000000
   vertex -4.388430 -1.817750 3.000000
   vertex -4.388430 -1.817750 4.000000
  endloop
 endfacet
 facet normal -0.980786 0.195089 0.000000
  outer loop
   vertex -4.750000 0.000000 3.000000
   vertex -4.750000 0.000000 4.000000
   vertex -4.388430 1.817750 3.000000
  endloop
 endfacet
 facet normal -0.980786 0.195089 0.000000
  outer loop
   vertex -4.388430 1.817750 3.000000
   vertex -4.750000 0.000000 4.000000
   vertex -4.388430 1.817750 4.000000
  endloop
 endfacet
 facet normal -0.831470 0.555570 0.000000
  outer loop
   vertex -4.388430 1.817750 3.000000
   vertex -4.388430 1.817750 4.000000
   vertex -3.358760 3.358760 3.000000
  endloop
 endfacet
 facet normal -0.831470 0.555570 0.000000
  outer loop
   vertex -3.358760 3.358760 3.000000
   vertex -4.388430 1.817750 4.000000
   vertex -3.358760 3.358760 4.000000
  endloop
 endfacet
 facet normal -0.555570 0.831470 0.000000
  outer loop
   vertex -3.358760 3.358760 3.000000
   vertex -3.358760 3.358760 4.000000
   vertex -1.817750 4.388430 3.000000
  endloop
 endfacet
 facet normal -0.555570 0.831470 0.000000
  outer loop
   vertex -1.817750 4.388430 3.000000
   vertex -3.358760 3.358760 4.000000
   vertex -1.817750 4.388430 4.000000
  endloop
 endfacet
 facet normal -0.195089 0.980786 0.000000
  outer loop
   vertex -1.817750 4.388430 3.000000
   vertex -1.817750 4.388430 4.000000
   vertex 0.000000 4.750000 3.000000
  endloop
 endfacet
 facet normal -0.195089 0.980786 0.000000
  outer loop
   vertex 0.000000 4.750000 3.000000
   vertex -1.817750 4.388430 4.000000
   vertex 0.000000 4.750000 4.000000
  endloop
 endfacet
 facet normal 0.195089 0.980786 -0.000000
  outer loop
   vertex 0.000000 4.750000 3.000000
   vertex 0.000000 4.750000 4.000000
   vertex 1.817750 4.388430 3.000000
  endloop
 endfacet
 facet normal 0.195089 0.980786 -0.000000
  outer loop
   vertex 1.817750 4.388430 3.000000
   vertex 0.000000 4.750000 4.000000
   vertex 1.817750 4.388430 4.000000
  endloop
 endfacet
 facet normal 0.555570 0.831470 -0.000000
  outer loop
   vertex 1.817750 4.388430 3.000000
   vertex 1.817750 4.388430 4.000000
   vertex 3.358760 3.358760 3.000000
  endloop
 endfacet
 facet normal 0.555570 0.831470 -0.000000
  outer loop
   vertex 3.358760 3.358760 3.000000
   vertex 1.817750 4.388430 4.000000
   vertex 3.358760 3.358760 4.000000
  endloop
 endfacet
 facet normal 0.831470 0.555570 0.000000
  outer loop
   vertex 4.388430 1.817750 3.000000
   vertex 3.358760 3.358760 3.000000
   vertex 3.358760 3.358760 4.000000
  endloop
 endfacet
 facet normal 0.831470 0.555570 0.000000
  outer loop
   vertex 4.388430 1.817750 4.000000
   vertex 4.388430 1.817750 3.000000
   vertex 3.358760 3.358760 4.000000
  endloop
 endfacet
 facet normal 0.980786 0.195089 0.000000
  outer loop
   vertex 4.750000 0.000000 3.000000
   vertex 4.388430 1.817750 3.000000
   vertex 4.388430 1.817750 4.000000
  endloop
 endfacet
 facet normal 0.980786 0.195089 0.000000
  outer loop
   vertex 4.750000 0.000000 4.000000
   vertex 4.750000 0.000000 3.000000
   vertex 4.388430 1.817750 4.000000
  endloop
 endfacet
 facet normal 0.980786 -0.195089 0.000000
  outer loop
   vertex 4.388430 -1.817750 4.000000
   vertex 4.388430 -1.817750 3.000000
   vertex 4.750000 0.000000 3.000000
  endloop
 endfacet
 facet normal 0.980786 -0.195089 0.000000
  outer loop
   vertex 4.750000 0.000000 4.000000
   vertex 4.388430 -1.817750 4.000000
   vertex 4.750000 0.000000 3.000000
  endloop
 endfacet
 facet normal 0.831470 -0.555570 0.000000
  outer loop
   vertex 3.358760 -3.358760 4.000000
   vertex 3.358760 -3.358760 3.000000
   vertex 4.388430 -1.817750 3.000000
  endloop
 endfacet
 facet normal 0.831470 -0.555570 0.000000
  outer loop
   vertex 4.388430 -1.817750 4.000000
   vertex 3.358760 -3.358760 4.000000
   vertex 4.388430 -1.817750 3.000000
  endloop
 endfacet
 facet normal 0.555570 -0.831470 0.000000
  outer loop
   vertex 1.817750 -4.388430 4.000000
   vertex 1.817750 -4.388430 3.000000
   vertex 3.358760 -3.358760 3.000000
  endloop
 endfacet
 facet normal 0.555570 -0.831470 0.000000
  outer loop
   vertex 3.358760 -3.358760 4.000000
   vertex 1.817750 -4.388430 4.000000
   vertex 3.358760 -3.358760 3.000000
  endloop
 endfacet
 facet normal 0.555570 -0.831470 0.000000
  outer loop
   vertex 1.817750 -4.388430 18.000000
   vertex 1.817750 -4.388430 12.300000
   vertex 3.358760 -3.358760 12.300000
  endloop
 endfacet
 facet normal 0.555570 -0.831470 0.000000
  outer loop
   vertex 3.358760 -3.358760 18.000000
   vertex 1.817750 -4.388430 18.000000
   vertex 3.358760 -3.358760 12.300000
  endloop
 endfacet
 facet normal 0.831470 -0.555570 0.000000
  outer loop
   vertex 3.358760 -3.358760 18.000000
   vertex 3.358760 -3.358760 12.300000
   vertex 4.388430 -1.817750 12.300000
  endloop
 endfacet
 facet normal 0.831470 -0.555570 0.000000
  outer loop
   vertex 4.388430 -1.817750 18.000000
   vertex 3.358760 -3.358760 18.000000
   vertex 4.388430 -1.817750 12.300000
  endloop
 endfacet
 facet normal 0.980786 -0.195089 0.000000
  outer loop
   vertex 4.388430 -1.817750 18.000000
   vertex 4.388430 -1.817750 12.300000
   vertex 4.750000 0.000000 12.300000
  endloop
 endfacet
 facet normal 0.980786 -0.195089 0.000000
  outer loop
   vertex 4.750000 0.000000 18.000000
   vertex 4.388430 -1.817750 18.000000
   vertex 4.750000 0.000000 12.300000
  endloop
 endfacet
 facet normal 0.980786 0.195089 0.000000
  outer loop
   vertex 4.750000 0.000000 12.300000
   vertex 4.388430 1.817750 12.300000
   vertex 4.388430 1.817750 18.000000
  endloop
 endfacet
 facet normal 0.980786 0.195089 0.000000
  outer loop
   vertex 4.750000 0.000000 18.000000
   vertex 4.750000 0.000000 12.300000
   vertex 4.388430 1.817750 18.000000
  endloop
 endfacet
 facet normal 0.831470 0.555570 0.000000
  outer loop
   vertex 4.388430 1.817750 12.300000
   vertex 3.358760 3.358760 12.300000
   vertex 3.358760 3.358760 18.000000
  endloop
 endfacet
 facet normal 0.831470 0.555570 0.000000
  outer loop
   vertex 4.388430 1.817750 18.000000
   vertex 4.388430 1.817750 12.300000
   vertex 3.358760 3.358760 18.000000
  endloop
 endfacet
 facet normal 0.555570 0.831470 -0.000000
  outer loop
   vertex 1.817750 4.388430 12.300000
   vertex 1.817750 4.388430 18.000000
   vertex 3.358760 3.358760 12.300000
  endloop
 endfacet
 facet normal 0.555570 0.831470 -0.000000
  outer loop
   vertex 3.358760 3.358760 12.300000
   vertex 1.817750 4.388430 18.000000
   vertex 3.358760 3.358760 18.000000
  endloop
 endfacet
 facet normal 0.195089 0.980786 -0.000000
  outer loop
   vertex 0.000000 4.750000 12.300000
   vertex 0.000000 4.750000 18.000000
   vertex 1.817750 4.388430 12.300000
  endloop
 endfacet
 facet normal 0.195089 0.980786 -0.000000
  outer loop
   vertex 1.817750 4.388430 12.300000
   vertex 0.000000 4.750000 18.000000
   vertex 1.817750 4.388430 18.000000
  endloop
 endfacet
 facet normal -0.195089 0.980786 0.000000
  outer loop
   vertex -1.817750 4.388430 12.300000
   vertex -1.817750 4.388430 18.000000
   vertex 0.000000 4.750000 12.300000
  endloop
 endfacet
 facet normal -0.195089 0.980786 0.000000
  outer loop
   vertex 0.000000 4.750000 12.300000
   vertex -1.817750 4.388430 18.000000
   vertex 0.000000 4.750000 18.000000
  endloop
 endfacet
 facet normal -0.555570 0.831470 0.000000
  outer loop
   vertex -3.358760 3.358760 12.300000
   vertex -3.358760 3.358760 18.000000
   vertex -1.817750 4.388430 12.300000
  endloop
 endfacet
 facet normal -0.555570 0.831470 0.000000
  outer loop
   vertex -1.817750 4.388430 12.300000
   vertex -3.358760 3.358760 18.000000
   vertex -1.817750 4.388430 18.000000
  endloop
 endfacet
 facet normal -0.831470 0.555570 0.000000
  outer loop
   vertex -4.388430 1.817750 12.300000
   vertex -4.388430 1.817750 18.000000
   vertex -3.358760 3.358760 12.300000
  endloop
 endfacet
 facet normal -0.831470 0.555570 0.000000
  outer loop
   vertex -3.358760 3.358760 12.300000
   vertex -4.388430 1.817750 18.000000
   vertex -3.358760 3.358760 18.000000
  endloop
 endfacet
 facet normal -0.980786 0.195089 0.000000
  outer loop
   vertex -4.750000 0.000000 12.300000
   vertex -4.750000 0.000000 18.000000
   vertex -4.388430 1.817750 12.300000
  endloop
 endfacet
 facet normal -0.980786 0.195089 0.000000
  outer loop
   vertex -4.388430 1.817750 12.300000
   vertex -4.750000 0.000000 18.000000
   vertex -4.388430 1.817750 18.000000
  endloop
 endfacet
 facet normal -0.980786 -0.195089 0.000000
  outer loop
   vertex -4.750000 0.000000 12.300000
   vertex -4.388430 -1.817750 12.300000
   vertex -4.750000 0.000000 18.000000
  endloop
 endfacet
 facet normal -0.980786 -0.195089 0.000000
  outer loop
   vertex -4.750000 0.000000 18.000000
   vertex -4.388430 -1.817750 12.300000
   vertex -4.388430 -1.817750 18.000000
  endloop
 endfacet
 facet normal -0.831470 -0.555570 0.000000
  outer loop
   vertex -4.388430 -1.817750 12.300000
   vertex -3.358760 -3.358760 12.300000
   vertex -4.388430 -1.817750 18.000000
  endloop
 endfacet
 facet normal -0.831470 -0.555570 0.000000
  outer loop
   vertex -4.388430 -1.817750 18.000000
   vertex -3.358760 -3.358760 12.300000
   vertex -3.358760 -3.358760 18.000000
  endloop
 endfacet
 facet normal -0.555570 -0.831470 -0.000000
  outer loop
   vertex -3.358760 -3.358760 18.000000
   vertex -3.358760 -3.358760 12.300000
   vertex -1.817750 -4.388430 12.300000
  endloop
 endfacet
 facet normal -0.555570 -0.831470 -0.000000
  outer loop
   vertex -1.817750 -4.388430 18.000000
   vertex -3.358760 -3.358760 18.000000
   vertex -1.817750 -4.388430 12.300000
  endloop
 endfacet
 facet normal 0.000000 0.000000 1.000000
  outer loop
   vertex -4.388430 1.817750 18.000000
   vertex -4.750000 0.000000 18.000000
   vertex -4.388430 -1.817750 18.000000
  endloop
 endfacet
 facet normal 0.000000 0.000000 1.000000
  outer loop
   vertex -3.695520 -1.530730 18.000000
   vertex -4.388430 1.817750 18.000000
   vertex -3.358760 -3.358760 18.000000
  endloop
 endfacet
 facet normal 0.000000 0.000000 1.000000
  outer loop
   vertex -3.358760 -3.358760 18.000000
   vertex -4.388430 1.817750 18.000000
   vertex -4.388430 -1.817750 18.000000
  endloop
 endfacet
 facet normal 0.000000 -0.000000 1.000000
  outer loop
   vertex -3.695520 1.530730 18.000000
   vertex -2.828430 2.828430 18.000000
   vertex -4.388430 1.817750 18.000000
  endloop
 endfacet
 facet normal 0.000000 0.000000 1.000000
  outer loop
   vertex -1.530730 -3.695520 18.000000
   vertex -2.828430 -2.828430 18.000000
   vertex -1.817750 -4.388430 18.000000
  endloop
 endfacet
 facet normal 0.000000 0.000000 1.000000
  outer loop
   vertex 3.695520 1.530730 18.000000
   vertex 4.000000 0.000000 18.000000
   vertex 4.750000 0.000000 18.000000
  endloop
 endfacet
 facet normal -0.000000 0.000000 1.000000
  outer loop
   vertex -1.817750 4.388430 18.000000
   vertex -4.388430 1.817750 18.000000
   vertex 0.000000 4.750000 18.000000
  endloop
 endfacet
 facet normal -0.000000 0.000000 1.000000
  outer loop
   vertex -3.358760 3.358760 18.000000
   vertex -4.388430 1.817750 18.000000
   vertex -1.817750 4.388430 18.000000
  endloop
 endfacet
 facet normal 0.000000 0.000000 1.000000
  outer loop
   vertex -1.817750 -4.388430 18.000000
   vertex -3.695520 -1.530730 18.000000
   vertex -3.358760 -3.358760 18.000000
  endloop
 endfacet
 facet normal 0.000000 0.000000 1.000000
  outer loop
   vertex -4.000000 0.000000 18.000000
   vertex -4.388430 1.817750 18.000000
   vertex -3.695520 -1.530730 18.000000
  endloop
 endfacet
 facet normal 0.000000 0.000000 1.000000
  outer loop
   vertex 2.828430 -2.828430 18.000000
   vertex 1.530730 -3.695520 18.000000
   vertex 3.358760 -3.358760 18.000000
  endloop
 endfacet
 facet normal 0.000000 0.000000 1.000000
  outer loop
   vertex 1.530730 3.695520 18.000000
   vertex 2.828430 2.828430 18.000000
   vertex 3.358760 3.358760 18.000000
  endloop
 endfacet
 facet normal 0.000000 0.000000 1.000000
  outer loop
   vertex 0.000000 4.750000 18.000000
   vertex -4.388430 1.817750 18.000000
   vertex -2.828430 2.828430 18.000000
  endloop
 endfacet
 facet normal 0.000000 0.000000 1.000000
  outer loop
   vertex 0.000000 4.750000 18.000000
   vertex -1.530730 3.695520 18.000000
   vertex 1.817750 4.388430 18.000000
  endloop
 endfacet
 facet normal 0.000000 0.000000 1.000000
  outer loop
   vertex 0.000000 4.750000 18.000000
   vertex -2.828430 2.828430 18.000000
   vertex -1.530730 3.695520 18.000000
  endloop
 endfacet
 facet normal 0.000000 0.000000 1.000000
  outer loop
   vertex -1.530730 3.695520 18.000000
   vertex 0.000000 4.000000 18.000000
   vertex 1.817750 4.388430 18.000000
  endloop
 endfacet
 facet normal 0.000000 0.000000 1.000000
  outer loop
   vertex 1.817750 4.388430 18.000000
   vertex 1.530730 3.695520 18.000000
   vertex 3.358760 3.358760 18.000000
  endloop
 endfacet
 facet normal -0.000000 0.000000 1.000000
  outer loop
   vertex 0.000000 4.000000 18.000000
   vertex 1.530730 3.695520 18.000000
   vertex 1.817750 4.388430 18.000000
  endloop
 endfacet
 facet normal 0.000000 0.000000 1.000000
  outer loop
   vertex 3.358760 3.358760 18.000000
   vertex 2.828430 2.828430 18.000000
   vertex 4.388430 1.817750 18.000000
  endloop
 endfacet
 facet normal 0.000000 0.000000 1.000000
  outer loop
   vertex 4.388430 1.817750 18.000000
   vertex 3.695520 1.530730 18.000000
   vertex 4.750000 0.000000 18.000000
  endloop
 endfacet
 facet normal 0.000000 0.000000 1.000000
  outer loop
   vertex 4.750000 0.000000 18.000000
   vertex 4.000000 0.000000 18.000000
   vertex 4.388430 -1.817750 18.000000
  endloop
 endfacet
 facet normal 0.000000 0.000000 1.000000
  outer loop
   vertex 4.388430 -1.817750 18.000000
   vertex 3.695520 -1.530730 18.000000
   vertex 3.358760 -3.358760 18.000000
  endloop
 endfacet
 facet normal 0.000000 0.000000 1.000000
  outer loop
   vertex 2.828430 2.828430 18.000000
   vertex 3.695520 1.530730 18.000000
   vertex 4.388430 1.817750 18.000000
  endloop
 endfacet
 facet normal 0.000000 0.000000 1.000000
  outer loop
   vertex 3.695520 -1.530730 18.000000
   vertex 2.828430 -2.828430 18.000000
   vertex 3.358760 -3.358760 18.000000
  endloop
 endfacet
 facet normal 0.000000 0.000000 1.000000
  outer loop
   vertex 3.358760 -3.358760 18.000000
   vertex 1.530730 -3.695520 18.000000
   vertex 1.817750 -4.388430 18.000000
  endloop
 endfacet
 facet normal 0.000000 0.000000 1.000000
  outer loop
   vertex 1.817750 -4.388430 18.000000
   vertex 0.000000 -4.000000 18.000000
   vertex 0.000000 -4.750000 18.000000
  endloop
 endfacet
 facet normal 0.000000 0.000000 1.000000
  outer loop
   vertex 4.000000 0.000000 18.000000
   vertex 3.695520 -1.530730 18.000000
   vertex 4.388430 -1.817750 18.000000
  endloop
 endfacet
 facet normal 0.000000 0.000000 1.000000
  outer loop
   vertex 0.000000 -4.750000 18.000000
   vertex -1.530730 -3.695520 18.000000
   vertex -1.817750 -4.388430 18.000000
  endloop
 endfacet
 facet normal 0.000000 0.000000 1.000000
  outer loop
   vertex -1.817750 -4.388430 18.000000
   vertex -2.828430 -2.828430 18.000000
   vertex -3.695520 -1.530730 18.000000
  endloop
 endfacet
 facet normal 0.000000 0.000000 1.000000
  outer loop
   vertex 1.530730 -3.695520 18.000000
   vertex 0.000000 -4.000000 18.000000
   vertex 1.817750 -4.388430 18.000000
  endloop
 endfacet
 facet normal 0.000000 0.000000 1.000000
  outer loop
   vertex 0.000000 -4.000000 18.000000
   vertex -1.530730 -3.695520 18.000000
   vertex 0.000000 -4.750000 18.000000
  endloop
 endfacet
 facet normal 0.000000 -0.000000 1.000000
  outer loop
   vertex -4.000000 0.000000 18.000000
   vertex -3.695520 1.530730 18.000000
   vertex -4.388430 1.817750 18.000000
  endloop
 endfacet
 facet normal 0.280879 -0.420365 -0.862787
  outer loop
   vertex 1.817750 -4.388430 3.000000
   vertex 0.282843 -0.282843 0.500000
   vertex 3.358760 -3.358760 3.000000
  endloop
 endfacet
 facet normal 0.280877 -0.420365 -0.862787
  outer loop
   vertex 1.817750 -4.388430 3.000000
   vertex 0.153073 -0.369552 0.500000
   vertex 0.282843 -0.282843 0.500000
  endloop
 endfacet
 facet normal 0.098631 -0.495854 -0.862787
  outer loop
   vertex 1.817750 -4.388430 3.000000
   vertex 0.000000 -4.750000 3.000000
   vertex 0.153073 -0.369552 0.500000
  endloop
 endfacet
 facet normal 0.098631 -0.495854 -0.862786
  outer loop
   vertex 0.153073 -0.369552 0.500000
   vertex 0.000000 -4.750000 3.000000
   vertex 0.000000 -0.400000 0.500000
  endloop
 endfacet
 facet normal -0.098631 -0.495854 -0.862787
  outer loop
   vertex 0.000000 -4.750000 3.000000
   vertex -1.817750 -4.388430 3.000000
   vertex 0.000000 -0.400000 0.500000
  endloop
 endfacet
 facet normal -0.098631 -0.495854 -0.862787
  outer loop
   vertex 0.000000 -0.400000 0.500000
   vertex -1.817750 -4.388430 3.000000
   vertex -0.153073 -0.369552 0.500000
  endloop
 endfacet
 facet normal -0.280879 -0.420365 -0.862787
  outer loop
   vertex -1.817750 -4.388430 3.000000
   vertex -3.358760 -3.358760 3.000000
   vertex -0.153073 -0.369552 0.500000
  endloop
 endfacet
 facet normal -0.280878 -0.420366 -0.862787
  outer loop
   vertex -0.153073 -0.369552 0.500000
   vertex -3.358760 -3.358760 3.000000
   vertex -0.282843 -0.282843 0.500000
  endloop
 endfacet
 facet normal -0.420365 -0.280879 -0.862787
  outer loop
   vertex -3.358760 -3.358760 3.000000
   vertex -4.388430 -1.817750 3.000000
   vertex -0.282843 -0.282843 0.500000
  endloop
 endfacet
 facet normal -0.420365 -0.280877 -0.862787
  outer loop
   vertex -0.282843 -0.282843 0.500000
   vertex -4.388430 -1.817750 3.000000
   vertex -0.369552 -0.153073 0.500000
  endloop
 endfacet
 facet normal -0.495854 -0.098631 -0.862787
  outer loop
   vertex -4.388430 -1.817750 3.000000
   vertex -4.750000 0.000000 3.000000
   vertex -0.369552 -0.153073 0.500000
  endloop
 endfacet
 facet normal -0.495854 -0.098631 -0.862786
  outer loop
   vertex -0.369552 -0.153073 0.500000
   vertex -4.750000 0.000000 3.000000
   vertex -0.400000 0.000000 0.500000
  endloop
 endfacet
 facet normal -0.495854 0.098631 -0.862787
  outer loop
   vertex -0.400000 0.000000 0.500000
   vertex -4.750000 0.000000 3.000000
   vertex -4.388430 1.817750 3.000000
  endloop
 endfacet
 facet normal -0.495854 0.098631 -0.862787
  outer loop
   vertex -0.400000 0.000000 0.500000
   vertex -4.388430 1.817750 3.000000
   vertex -0.369552 0.153073 0.500000
  endloop
 endfacet
 facet normal -0.420365 0.280879 -0.862787
  outer loop
   vertex -0.369552 0.153073 0.500000
   vertex -4.388430 1.817750 3.000000
   vertex -3.358760 3.358760 3.000000
  endloop
 endfacet
 facet normal -0.420366 0.280878 -0.862787
  outer loop
   vertex -0.369552 0.153073 0.500000
   vertex -3.358760 3.358760 3.000000
   vertex -0.282843 0.282843 0.500000
  endloop
 endfacet
 facet normal -0.280879 0.420365 -0.862787
  outer loop
   vertex -0.282843 0.282843 0.500000
   vertex -3.358760 3.358760 3.000000
   vertex -1.817750 4.388430 3.000000
  endloop
 endfacet
 facet normal -0.280877 0.420365 -0.862787
  outer loop
   vertex -0.282843 0.282843 0.500000
   vertex -1.817750 4.388430 3.000000
   vertex -0.153073 0.369552 0.500000
  endloop
 endfacet
 facet normal -0.098631 0.495854 -0.862786
  outer loop
   vertex -0.153073 0.369552 0.500000
   vertex -1.817750 4.388430 3.000000
   vertex 0.000000 4.750000 3.000000
  endloop
 endfacet
 facet normal -0.098631 0.495854 -0.862786
  outer loop
   vertex 0.000000 0.400000 0.500000
   vertex -0.153073 0.369552 0.500000
   vertex 0.000000 4.750000 3.000000
  endloop
 endfacet
 facet normal 0.098631 0.495854 -0.862787
  outer loop
   vertex 1.817750 4.388430 3.000000
   vertex 0.000000 0.400000 0.500000
   vertex 0.000000 4.750000 3.000000
  endloop
 endfacet
 facet normal 0.098631 0.495854 -0.862787
  outer loop
   vertex 0.153073 0.369552 0.500000
   vertex 0.000000 0.400000 0.500000
   vertex 1.817750 4.388430 3.000000
  endloop
 endfacet
 facet normal 0.280879 0.420365 -0.862787
  outer loop
   vertex 3.358760 3.358760 3.000000
   vertex 0.153073 0.369552 0.500000
   vertex 1.817750 4.388430 3.000000
  endloop
 endfacet
 facet normal 0.280878 0.420366 -0.862787
  outer loop
   vertex 0.282843 0.282843 0.500000
   vertex 0.153073 0.369552 0.500000
   vertex 3.358760 3.358760 3.000000
  endloop
 endfacet
 facet normal 0.420365 0.280879 -0.862787
  outer loop
   vertex 4.388430 1.817750 3.000000
   vertex 0.282843 0.282843 0.500000
   vertex 3.358760 3.358760 3.000000
  endloop
 endfacet
 facet normal 0.420365 0.280877 -0.862787
  outer loop
   vertex 0.369552 0.153073 0.500000
   vertex 0.282843 0.282843 0.500000
   vertex 4.388430 1.817750 3.000000
  endloop
 endfacet
 facet normal 0.495854 0.098631 -0.862787
  outer loop
   vertex 4.750000 0.000000 3.000000
   vertex 0.369552 0.153073 0.500000
   vertex 4.388430 1.817750 3.000000
  endloop
 endfacet
 facet normal 0.495854 0.098631 -0.862786
  outer loop
   vertex 0.400000 0.000000 0.500000
   vertex 0.369552 0.153073 0.500000
   vertex 4.750000 0.000000 3.000000
  endloop
 endfacet
 facet normal 0.495854 -0.098631 -0.862787
  outer loop
   vertex 4.388430 -1.817750 3.000000
   vertex 0.400000 0.000000 0.500000
   vertex 4.750000 0.000000 3.000000
  endloop
 endfacet
 facet normal 0.495854 -0.098631 -0.862786
  outer loop
   vertex 4.388430 -1.817750 3.000000
   vertex 0.369552 -0.153073 0.500000
   vertex 0.400000 0.000000 0.500000
  endloop
 endfacet
 facet normal 0.420365 -0.280879 -0.862787
  outer loop
   vertex 3.358760 -3.358760 3.000000
   vertex 0.369552 -0.153073 0.500000
   vertex 4.388430 -1.817750 3.000000
  endloop
 endfacet
 facet normal 0.420365 -0.280878 -0.862787
  outer loop
   vertex 3.358760 -3.358760 3.000000
   vertex 0.282843 -0.282843 0.500000
   vertex 0.369552 -0.153073 0.500000
  endloop
 endfacet
 facet normal 0.831471 0.555568 0.000000
  outer loop
   vertex -3.695520 -1.530730 18.000000
   vertex -2.828430 -2.828430 18.000000
   vertex -2.828430 -2.828430 4.000000
  endloop
 endfacet
 facet normal 0.831471 0.555568 -0.000000
  outer loop
   vertex -3.695520 -1.530730 4.000000
   vertex -3.695520 -1.530730 18.000000
   vertex -2.828430 -2.828430 4.000000
  endloop
 endfacet
 facet normal 0.980785 0.195090 0.000000
  outer loop
   vertex -4.000000 0.000000 18.000000
   vertex -3.695520 -1.530730 18.000000
   vertex -3.695520 -1.530730 4.000000
  endloop
 endfacet
 facet normal 0.980785 0.195090 -0.000000
  outer loop
   vertex -4.000000 0.000000 4.000000
   vertex -4.000000 0.000000 18.000000
   vertex -3.695520 -1.530730 4.000000
  endloop
 endfacet
 facet normal 0.555568 0.831471 0.000000
  outer loop
   vertex -1.530730 -3.695520 18.000000
   vertex -1.530730 -3.695520 4.000000
   vertex -2.828430 -2.828430 18.000000
  endloop
 endfacet
 facet normal 0.555568 0.831471 0.000000
  outer loop
   vertex -2.828430 -2.828430 18.000000
   vertex -1.530730 -3.695520 4.000000
   vertex -2.828430 -2.828430 4.000000
  endloop
 endfacet
 facet normal 0.195090 0.980785 0.000000
  outer loop
   vertex 0.000000 -4.000000 18.000000
   vertex 0.000000 -4.000000 4.000000
   vertex -1.530730 -3.695520 18.000000
  endloop
 endfacet
 facet normal 0.195090 0.980785 0.000000
  outer loop
   vertex -1.530730 -3.695520 18.000000
   vertex 0.000000 -4.000000 4.000000
   vertex -1.530730 -3.695520 4.000000
  endloop
 endfacet
 facet normal -0.195090 0.980785 0.000000
  outer loop
   vertex 1.530730 -3.695520 18.000000
   vertex 1.530730 -3.695520 4.000000
   vertex 0.000000 -4.000000 18.000000
  endloop
 endfacet
 facet normal -0.195090 0.980785 0.000000
  outer loop
   vertex 0.000000 -4.000000 18.000000
   vertex 1.530730 -3.695520 4.000000
   vertex 0.000000 -4.000000 4.000000
  endloop
 endfacet
 facet normal -0.555568 0.831471 0.000000
  outer loop
   vertex 2.828430 -2.828430 18.000000
   vertex 2.828430 -2.828430 4.000000
   vertex 1.530730 -3.695520 18.000000
  endloop
 endfacet
 facet normal -0.555568 0.831471 0.000000
  outer loop
   vertex 1.530730 -3.695520 18.000000
   vertex 2.828430 -2.828430 4.000000
   vertex 1.530730 -3.695520 4.000000
  endloop
 endfacet
 facet normal -0.831471 0.555568 0.000000
  outer loop
   vertex 3.695520 -1.530730 18.000000
   vertex 3.695520 -1.530730 4.000000
   vertex 2.828430 -2.828430 18.000000
  endloop
 endfacet
 facet normal -0.831471 0.555568 0.000000
  outer loop
   vertex 2.828430 -2.828430 18.000000
   vertex 3.695520 -1.530730 4.000000
   vertex 2.828430 -2.828430 4.000000
  endloop
 endfacet
 facet normal -0.980785 0.195090 0.000000
  outer loop
   vertex 4.000000 0.000000 18.000000
   vertex 4.000000 0.000000 4.000000
   vertex 3.695520 -1.530730 18.000000
  endloop
 endfacet
 facet normal -0.980785 0.195090 0.000000
  outer loop
   vertex 3.695520 -1.530730 18.000000
   vertex 4.000000 0.000000 4.000000
   vertex 3.695520 -1.530730 4.000000
  endloop
 endfacet
 facet normal -0.980785 -0.195090 -0.000000
  outer loop
   vertex 4.000000 0.000000 18.000000
   vertex 3.695520 1.530730 18.000000
   vertex 4.000000 0.000000 4.000000
  endloop
 endfacet
 facet normal -0.980785 -0.195090 0.000000
  outer loop
   vertex 4.000000 0.000000 4.000000
   vertex 3.695520 1.530730 18.000000
   vertex 3.695520 1.530730 4.000000
  endloop
 endfacet
 facet normal -0.831471 -0.555568 -0.000000
  outer loop
   vertex 3.695520 1.530730 18.000000
   vertex 2.828430 2.828430 18.000000
   vertex 3.695520 1.530730 4.000000
  endloop
 endfacet
 facet normal -0.831471 -0.555568 0.000000
  outer loop
   vertex 3.695520 1.530730 4.000000
   vertex 2.828430 2.828430 18.000000
   vertex 2.828430 2.828430 4.000000
  endloop
 endfacet
 facet normal -0.555568 -0.831471 0.000000
  outer loop
   vertex 2.828430 2.828430 4.000000
   vertex 2.828430 2.828430 18.000000
   vertex 1.530730 3.695520 18.000000
  endloop
 endfacet
 facet normal -0.555568 -0.831471 0.000000
  outer loop
   vertex 1.530730 3.695520 4.000000
   vertex 2.828430 2.828430 4.000000
   vertex 1.530730 3.695520 18.000000
  endloop
 endfacet
 facet normal -0.195090 -0.980785 0.000000
  outer loop
   vertex 1.530730 3.695520 4.000000
   vertex 1.530730 3.695520 18.000000
   vertex 0.000000 4.000000 18.000000
  endloop
 endfacet
 facet normal -0.195090 -0.980785 0.000000
  outer loop
   vertex 0.000000 4.000000 4.000000
   vertex 1.530730 3.695520 4.000000
   vertex 0.000000 4.000000 18.000000
  endloop
 endfacet
 facet normal 0.195090 -0.980785 0.000000
  outer loop
   vertex 0.000000 4.000000 4.000000
   vertex 0.000000 4.000000 18.000000
   vertex -1.530730 3.695520 18.000000
  endloop
 endfacet
 facet normal 0.195090 -0.980785 0.000000
  outer loop
   vertex -1.530730 3.695520 4.000000
   vertex 0.000000 4.000000 4.000000
   vertex -1.530730 3.695520 18.000000
  endloop
 endfacet
 facet normal 0.555568 -0.831471 0.000000
  outer loop
   vertex -1.530730 3.695520 4.000000
   vertex -1.530730 3.695520 18.000000
   vertex -2.828430 2.828430 18.000000
  endloop
 endfacet
 facet normal 0.555568 -0.831471 0.000000
  outer loop
   vertex -2.828430 2.828430 4.000000
   vertex -1.530730 3.695520 4.000000
   vertex -2.828430 2.828430 18.000000
  endloop
 endfacet
 facet normal 0.831471 -0.555568 0.000000
  outer loop
   vertex -2.828430 2.828430 4.000000
   vertex -2.828430 2.828430 18.000000
   vertex -3.695520 1.530730 18.000000
  endloop
 endfacet
 facet normal 0.831471 -0.555568 0.000000
  outer loop
   vertex -3.695520 1.530730 4.000000
   vertex -2.828430 2.828430 4.000000
   vertex -3.695520 1.530730 18.000000
  endloop
 endfacet
 facet normal 0.980785 -0.195090 0.000000
  outer loop
   vertex -3.695520 1.530730 4.000000
   vertex -3.695520 1.530730 18.000000
   vertex -4.000000 0.000000 18.000000
  endloop
 endfacet
 facet normal 0.980785 -0.195090 0.000000
  outer loop
   vertex -4.000000 0.000000 4.000000
   vertex -3.695520 1.530730 4.000000
   vertex -4.000000 0.000000 18.000000
  endloop
 endfacet
 facet normal 0.000000 0.000000 -1.000000
  outer loop
   vertex 0.282843 -0.282843 0.500000
   vertex 0.153073 -0.369552 0.500000
   vertex 0.000000 -0.400000 0.500000
  endloop
 endfacet
 facet normal 0.000000 0.000000 -1.000000
  outer loop
   vertex 0.400000 0.000000 0.500000
   vertex 0.369552 -0.153073 0.500000
   vertex 0.282843 -0.282843 0.500000
  endloop
 endfacet
 facet normal 0.923880 -0.382682 0.000000
  outer loop
   vertex 0.282843 -0.282843 0.500000
   vertex 0.282843 -0.282843 0.000000
   vertex 0.400000 0.000000 0.000000
  endloop
 endfacet
 facet normal 0.923880 -0.382682 0.000000
  outer loop
   vertex 0.400000 0.000000 0.500000
   vertex 0.282843 -0.282843 0.500000
   vertex 0.400000 0.000000 0.000000
  endloop
 endfacet
 facet normal 0.382682 -0.923880 0.000000
  outer loop
   vertex 0.000000 -0.400000 0.500000
   vertex 0.000000 -0.400000 0.000000
   vertex 0.282843 -0.282843 0.000000
  endloop
 endfacet
 facet normal 0.382682 -0.923880 0.000000
  outer loop
   vertex 0.282843 -0.282843 0.500000
   vertex 0.000000 -0.400000 0.500000
   vertex 0.282843 -0.282843 0.000000
  endloop
 endfacet
 facet normal 0.000000 0.000000 -1.000000
  outer loop
   vertex 0.000000 -0.400000 0.500000
   vertex -0.153073 -0.369552 0.500000
   vertex -0.282843 -0.282843 0.500000
  endloop
 endfacet
 facet normal -0.382682 -0.923880 -0.000000
  outer loop
   vertex -0.282843 -0.282843 0.500000
   vertex -0.282843 -0.282843 0.000000
   vertex 0.000000 -0.400000 0.000000
  endloop
 endfacet
 facet normal -0.382682 -0.923880 -0.000000
  outer loop
   vertex 0.000000 -0.400000 0.500000
   vertex -0.282843 -0.282843 0.500000
   vertex 0.000000 -0.400000 0.000000
  endloop
 endfacet
 facet normal 0.000000 0.000000 -1.000000
  outer loop
   vertex -0.282843 -0.282843 0.500000
   vertex -0.369552 -0.153073 0.500000
   vertex -0.400000 0.000000 0.500000
  endloop
 endfacet
 facet normal -0.923880 -0.382682 0.000000
  outer loop
   vertex -0.400000 0.000000 0.000000
   vertex -0.282843 -0.282843 0.000000
   vertex -0.400000 0.000000 0.500000
  endloop
 endfacet
 facet normal -0.923880 -0.382682 0.000000
  outer loop
   vertex -0.400000 0.000000 0.500000
   vertex -0.282843 -0.282843 0.000000
   vertex -0.282843 -0.282843 0.500000
  endloop
 endfacet
 facet normal -0.923880 0.382682 0.000000
  outer loop
   vertex -0.400000 0.000000 0.000000
   vertex -0.400000 0.000000 0.500000
   vertex -0.282843 0.282843 0.000000
  endloop
 endfacet
 facet normal -0.923880 0.382682 0.000000
  outer loop
   vertex -0.282843 0.282843 0.000000
   vertex -0.400000 0.000000 0.500000
   vertex -0.282843 0.282843 0.500000
  endloop
 endfacet
 facet normal 0.000000 -0.000000 -1.000000
  outer loop
   vertex -0.369552 0.153073 0.500000
   vertex -0.282843 0.282843 0.500000
   vertex -0.400000 0.000000 0.500000
  endloop
 endfacet
 facet normal -0.382682 0.923880 0.000000
  outer loop
   vertex -0.282843 0.282843 0.000000
   vertex -0.282843 0.282843 0.500000
   vertex 0.000000 0.400000 0.000000
  endloop
 endfacet
 facet normal -0.382682 0.923880 0.000000
  outer loop
   vertex 0.000000 0.400000 0.000000
   vertex -0.282843 0.282843 0.500000
   vertex 0.000000 0.400000 0.500000
  endloop
 endfacet
 facet normal 0.000000 -0.000000 -1.000000
  outer loop
   vertex -0.153073 0.369552 0.500000
   vertex 0.000000 0.400000 0.500000
   vertex -0.282843 0.282843 0.500000
  endloop
 endfacet
 facet normal 0.382682 0.923880 -0.000000
  outer loop
   vertex 0.000000 0.400000 0.000000
   vertex 0.000000 0.400000 0.500000
   vertex 0.282843 0.282843 0.000000
  endloop
 endfacet
 facet normal 0.382682 0.923880 -0.000000
  outer loop
   vertex 0.282843 0.282843 0.000000
   vertex 0.000000 0.400000 0.500000
   vertex 0.282843 0.282843 0.500000
  endloop
 endfacet
 facet normal -0.000000 -0.000000 -1.000000
  outer loop
   vertex 0.153073 0.369552 0.500000
   vertex 0.282843 0.282843 0.500000
   vertex 0.000000 0.400000 0.500000
  endloop
 endfacet
 facet normal 0.923880 0.382682 0.000000
  outer loop
   vertex 0.400000 0.000000 0.000000
   vertex 0.282843 0.282843 0.000000
   vertex 0.282843 0.282843 0.500000
  endloop
 endfacet
 facet normal 0.923880 0.382682 0.000000
  outer loop
   vertex 0.400000 0.000000 0.500000
   vertex 0.400000 0.000000 0.000000
   vertex 0.282843 0.282843 0.500000
  endloop
 endfacet
 facet normal -0.000000 -0.000000 -1.000000
  outer loop
   vertex 0.369552 0.153073 0.500000
   vertex 0.400000 0.000000 0.500000
   vertex 0.282843 0.282843 0.500000
  endloop
 endfacet
 facet normal 0.635056 0.126320 0.762067
  outer loop
   vertex -3.695520 -1.530730 4.000000
   vertex -0.369552 -0.153073 1.000000
   vertex -4.000000 0.000000 4.000000
  endloop
 endfacet
 facet normal 0.538376 0.359729 0.762067
  outer loop
   vertex -0.282843 -0.282843 1.000000
   vertex -0.369552 -0.153073 1.000000
   vertex -3.695520 -1.530730 4.000000
  endloop
 endfacet
 facet normal 0.538376 0.359729 0.762068
  outer loop
   vertex -2.828430 -2.828430 4.000000
   vertex -0.282843 -0.282843 1.000000
   vertex -3.695520 -1.530730 4.000000
  endloop
 endfacet
 facet normal 0.359729 0.538376 0.762067
  outer loop
   vertex -0.153073 -0.369552 1.000000
   vertex -0.282843 -0.282843 1.000000
   vertex -2.828430 -2.828430 4.000000
  endloop
 endfacet
 facet normal 0.359729 0.538376 0.762068
  outer loop
   vertex -1.530730 -3.695520 4.000000
   vertex -0.153073 -0.369552 1.000000
   vertex -2.828430 -2.828430 4.000000
  endloop
 endfacet
 facet normal 0.635056 -0.126320 0.762068
  outer loop
   vertex -0.400000 0.000000 1.000000
   vertex -3.695520 1.530730 4.000000
   vertex -4.000000 0.000000 4.000000
  endloop
 endfacet
 facet normal 0.635056 0.126320 0.762067
  outer loop
   vertex -0.369552 -0.153073 1.000000
   vertex -0.400000 0.000000 1.000000
   vertex -4.000000 0.000000 4.000000
  endloop
 endfacet
 facet normal 0.126320 0.635056 0.762067
  outer loop
   vertex 0.000000 -0.400000 1.000000
   vertex -0.153073 -0.369552 1.000000
   vertex -1.530730 -3.695520 4.000000
  endloop
 endfacet
 facet normal 0.126320 0.635056 0.762068
  outer loop
   vertex 0.000000 -4.000000 4.000000
   vertex 0.000000 -0.400000 1.000000
   vertex -1.530730 -3.695520 4.000000
  endloop
 endfacet
 facet normal -0.126320 0.635056 0.762067
  outer loop
   vertex 0.153073 -0.369552 1.000000
   vertex 0.000000 -0.400000 1.000000
   vertex 0.000000 -4.000000 4.000000
  endloop
 endfacet
 facet normal -0.126320 0.635056 0.762067
  outer loop
   vertex 1.530730 -3.695520 4.000000
   vertex 0.153073 -0.369552 1.000000
   vertex 0.000000 -4.000000 4.000000
  endloop
 endfacet
 facet normal -0.359728 0.538376 0.762068
  outer loop
   vertex 1.530730 -3.695520 4.000000
   vertex 0.282843 -0.282843 1.000000
   vertex 0.153073 -0.369552 1.000000
  endloop
 endfacet
 facet normal -0.359729 0.538376 0.762068
  outer loop
   vertex 1.530730 -3.695520 4.000000
   vertex 2.828430 -2.828430 4.000000
   vertex 0.282843 -0.282843 1.000000
  endloop
 endfacet
 facet normal -0.538375 0.359729 0.762068
  outer loop
   vertex 2.828430 -2.828430 4.000000
   vertex 0.369552 -0.153073 1.000000
   vertex 0.282843 -0.282843 1.000000
  endloop
 endfacet
 facet normal -0.538376 0.359729 0.762068
  outer loop
   vertex 2.828430 -2.828430 4.000000
   vertex 3.695520 -1.530730 4.000000
   vertex 0.369552 -0.153073 1.000000
  endloop
 endfacet
 facet normal -0.635056 0.126321 0.762068
  outer loop
   vertex 3.695520 -1.530730 4.000000
   vertex 0.400000 0.000000 1.000000
   vertex 0.369552 -0.153073 1.000000
  endloop
 endfacet
 facet normal -0.635056 0.126320 0.762068
  outer loop
   vertex 3.695520 -1.530730 4.000000
   vertex 4.000000 0.000000 4.000000
   vertex 0.400000 0.000000 1.000000
  endloop
 endfacet
 facet normal -0.635056 -0.126320 0.762068
  outer loop
   vertex 0.400000 0.000000 1.000000
   vertex 4.000000 0.000000 4.000000
   vertex 0.369552 0.153073 1.000000
  endloop
 endfacet
 facet normal -0.635056 -0.126320 0.762067
  outer loop
   vertex 4.000000 0.000000 4.000000
   vertex 3.695520 1.530730 4.000000
   vertex 0.369552 0.153073 1.000000
  endloop
 endfacet
 facet normal -0.538376 -0.359729 0.762067
  outer loop
   vertex 0.369552 0.153073 1.000000
   vertex 3.695520 1.530730 4.000000
   vertex 0.282843 0.282843 1.000000
  endloop
 endfacet
 facet normal -0.538376 -0.359729 0.762068
  outer loop
   vertex 3.695520 1.530730 4.000000
   vertex 2.828430 2.828430 4.000000
   vertex 0.282843 0.282843 1.000000
  endloop
 endfacet
 facet normal -0.359729 -0.538376 0.762067
  outer loop
   vertex 0.282843 0.282843 1.000000
   vertex 2.828430 2.828430 4.000000
   vertex 0.153073 0.369552 1.000000
  endloop
 endfacet
 facet normal -0.359729 -0.538376 0.762068
  outer loop
   vertex 2.828430 2.828430 4.000000
   vertex 1.530730 3.695520 4.000000
   vertex 0.153073 0.369552 1.000000
  endloop
 endfacet
 facet normal -0.126320 -0.635056 0.762067
  outer loop
   vertex 0.153073 0.369552 1.000000
   vertex 1.530730 3.695520 4.000000
   vertex 0.000000 0.400000 1.000000
  endloop
 endfacet
 facet normal -0.126320 -0.635056 0.762068
  outer loop
   vertex 1.530730 3.695520 4.000000
   vertex 0.000000 4.000000 4.000000
   vertex 0.000000 0.400000 1.000000
  endloop
 endfacet
 facet normal 0.126320 -0.635056 0.762068
  outer loop
   vertex 0.000000 0.400000 1.000000
   vertex 0.000000 4.000000 4.000000
   vertex -0.153073 0.369552 1.000000
  endloop
 endfacet
 facet normal 0.126320 -0.635056 0.762068
  outer loop
   vertex -0.153073 0.369552 1.000000
   vertex 0.000000 4.000000 4.000000
   vertex -1.530730 3.695520 4.000000
  endloop
 endfacet
 facet normal 0.359729 -0.538376 0.762067
  outer loop
   vertex -0.282843 0.282843 1.000000
   vertex -0.153073 0.369552 1.000000
   vertex -1.530730 3.695520 4.000000
  endloop
 endfacet
 facet normal 0.359729 -0.538376 0.762068
  outer loop
   vertex -0.282843 0.282843 1.000000
   vertex -1.530730 3.695520 4.000000
   vertex -2.828430 2.828430 4.000000
  endloop
 endfacet
 facet normal 0.538376 -0.359729 0.762067
  outer loop
   vertex -0.369552 0.153073 1.000000
   vertex -0.282843 0.282843 1.000000
   vertex -2.828430 2.828430 4.000000
  endloop
 endfacet
 facet normal 0.538375 -0.359729 0.762068
  outer loop
   vertex -0.369552 0.153073 1.000000
   vertex -2.828430 2.828430 4.000000
   vertex -3.695520 1.530730 4.000000
  endloop
 endfacet
 facet normal 0.635056 -0.126320 0.762067
  outer loop
   vertex -0.400000 0.000000 1.000000
   vertex -0.369552 0.153073 1.000000
   vertex -3.695520 1.530730 4.000000
  endloop
 endfacet
 facet normal 0.000000 0.000000 -1.000000
  outer loop
   vertex -0.400000 0.000000 0.000000
   vertex -0.282843 0.282843 0.000000
   vertex -0.282843 -0.282843 0.000000
  endloop
 endfacet
 facet normal 0.000000 0.000000 -1.000000
  outer loop
   vertex -0.282843 -0.282843 0.000000
   vertex -0.282843 0.282843 0.000000
   vertex 0.000000 0.400000 0.000000
  endloop
 endfacet
 facet normal 0.000000 0.000000 -1.000000
  outer loop
   vertex -0.282843 -0.282843 0.000000
   vertex 0.000000 0.400000 0.000000
   vertex 0.282843 0.282843 0.000000
  endloop
 endfacet
 facet normal 0.000000 0.000000 -1.000000
  outer loop
   vertex -0.282843 -0.282843 0.000000
   vertex 0.282843 0.282843 0.000000
   vertex 0.400000 0.000000 0.000000
  endloop
 endfacet
 facet normal 0.000000 0.000000 -1.000000
  outer loop
   vertex -0.282843 -0.282843 0.000000
   vertex 0.400000 0.000000 0.000000
   vertex 0.282843 -0.282843 0.000000
  endloop
 endfacet
 facet normal 0.000000 0.000000 -1.000000
  outer loop
   vertex -0.282843 -0.282843 0.000000
   vertex 0.282843 -0.282843 0.000000
   vertex 0.000000 -0.400000 0.000000
  endloop
 endfacet
 facet normal 0.000000 0.000000 1.000000
  outer loop
   vertex -0.369552 -0.153073 1.000000
   vertex -0.282843 -0.282843 1.000000
   vertex -0.153073 -0.369552 1.000000
  endloop
 endfacet
 facet normal 0.000000 0.000000 1.000000
  outer loop
   vertex 0.153073 -0.369552 1.000000
   vertex -0.369552 -0.153073 1.000000
   vertex 0.000000 -0.400000 1.000000
  endloop
 endfacet
 facet normal 0.000000 0.000000 1.000000
  outer loop
   vertex 0.000000 -0.400000 1.000000
   vertex -0.369552 -0.153073 1.000000
   vertex -0.153073 -0.369552 1.000000
  endloop
 endfacet
 facet normal 0.000000 0.000000 1.000000
  outer loop
   vertex 0.282843 -0.282843 1.000000
   vertex -0.369552 -0.153073 1.000000
   vertex 0.153073 -0.369552 1.000000
  endloop
 endfacet
 facet normal 0.000000 0.000000 1.000000
  outer loop
   vertex 0.369552 -0.153073 1.000000
   vertex -0.369552 -0.153073 1.000000
   vertex 0.282843 -0.282843 1.000000
  endloop
 endfacet
 facet normal 0.000000 0.000000 1.000000
  outer loop
   vertex 0.400000 0.000000 1.000000
   vertex -0.369552 -0.153073 1.000000
   vertex 0.369552 -0.153073 1.000000
  endloop
 endfacet
 facet normal 0.000000 0.000000 1.000000
  outer loop
   vertex 0.369552 0.153073 1.000000
   vertex -0.369552 -0.153073 1.000000
   vertex 0.400000 0.000000 1.000000
  endloop
 endfacet
 facet normal 0.000000 0.000000 1.000000
  outer loop
   vertex 0.282843 0.282843 1.000000
   vertex -0.369552 -0.153073 1.000000
   vertex 0.369552 0.153073 1.000000
  endloop
 endfacet
 facet normal 0.000000 0.000000 1.000000
  outer loop
   vertex 0.153073 0.369552 1.000000
   vertex -0.369552 -0.153073 1.000000
   vertex 0.282843 0.282843 1.000000
  endloop
 endfacet
 facet normal 0.000000 0.000000 1.000000
  outer loop
   vertex 0.000000 0.400000 1.000000
   vertex -0.369552 -0.153073 1.000000
   vertex 0.153073 0.369552 1.000000
  endloop
 endfacet
 facet normal -0.000000 0.000000 1.000000
  outer loop
   vertex -0.153073 0.369552 1.000000
   vertex -0.369552 -0.153073 1.000000
   vertex 0.000000 0.400000 1.000000
  endloop
 endfacet
 facet normal -0.000000 0.000000 1.000000
  outer loop
   vertex -0.282843 0.282843 1.000000
   vertex -0.369552 -0.153073 1.000000
   vertex -0.153073 0.369552 1.000000
  endloop
 endfacet
 facet normal -0.000000 0.000000 1.000000
  outer loop
   vertex -0.369552 0.153073 1.000000
   vertex -0.369552 -0.153073 1.000000
   vertex -0.282843 0.282843 1.000000
  endloop
 endfacet
 facet normal -0.000000 0.000000 1.000000
  outer loop
   vertex -0.400000 0.000000 1.000000
   vertex -0.369552 -0.153073 1.000000
   vertex -0.369552 0.153073 1.000000
  endloop
 endfacet
endsolid buserror-nozzle-model (repaired)
